# xmcd
#
# Track frame offsets:
#	150
#	29037
#	58325
#	80050
#	106129
#	150730
#
# Disc length: 2492 seconds
#
# Revision: 0
# Processed by: cddbd v1.5.2PL0 Copyright (c) Steve Scherf et al.
# Submitted via: dBpowerAMP V4.0
#
DISCID=4d09ba06
DTITLE=lumba - tokurom
DYEAR=1900
DGENRE=
TTITLE0=max 1
TTITLE1=max 2
TTITLE2=max
TTITLE3=app
TTITLE4=leele
TTITLE5=owura
EXTD=tokurom
EXTT0=
EXTT1=
EXTT2=
EXTT3=
EXTT4=
EXTT5=
PLAYORDER=
